<?xml version="1.0" encoding="UTF-8"?>
<svg width="215px" height="68px" viewBox="0 0 215 68" version="1.1" xmlns="http://www.w3.org/2000/svg" xmlns:xlink="http://www.w3.org/1999/xlink">
    <title>original 2</title>
    <defs>
        <path d="M8.316,35.2055 C8.925,35.2055 9.45525,35.1215 9.90675,34.9535 C10.35825,34.7855 10.752,34.5965 11.088,34.3865 C11.424,34.1765 11.7075,33.9875 11.9385,33.8195 C12.1695,33.6515 12.3795,33.5675 12.5685,33.5675 C13.0515,33.5675 13.293,33.8825 13.293,34.5125 C13.293,34.6595 13.2615,34.86425 13.1985,35.12675 C13.1355,35.38925 13.0515,35.66225 12.9465,35.94575 C12.8415,36.22925 12.73125,36.497 12.61575,36.749 C12.50025,37.001 12.39,37.19 12.285,37.316 C12.18,37.421 11.99625,37.589 11.73375,37.82 C11.47125,38.051 11.1195,38.282 10.6785,38.513 C10.2375,38.744 9.723,38.94875 9.135,39.12725 C8.547,39.30575 7.896,39.395 7.182,39.395 C6.384,39.395 5.55975,39.27425 4.70925,39.03275 C3.85875,38.79125 3.087,38.37125 2.394,37.77275 C1.701,37.17425 1.12875,36.36575 0.67725,35.34725 C0.22575,34.32875 0,33.053 0,31.52 C0,30.974 0.03675,30.34925 0.11025,29.64575 C0.18375,28.94225 0.336,28.21775 0.567,27.47225 C0.798,26.72675 1.10775,25.99175 1.49625,25.26725 C1.88475,24.54275 2.4045,23.897 3.0555,23.33 C3.7065,22.763 4.48875,22.30625 5.40225,21.95975 C6.31575,21.61325 7.4025,21.44 8.6625,21.44 C9.6915,21.44 10.57875,21.56075 11.32425,21.80225 C12.06975,22.04375 12.684,22.36925 13.167,22.77875 C13.65,23.18825 14.01225,23.666 14.25375,24.212 C14.49525,24.758 14.616,25.346 14.616,25.976 C14.616,27.11 14.259,27.94475 13.545,28.48025 C12.831,29.01575 11.823,29.2835 10.521,29.2835 C10.206,29.2835 9.99075,29.25725 9.87525,29.20475 C9.75975,29.15225 9.702,29.0315 9.702,28.8425 C9.702,28.3385 9.6915,27.887 9.6705,27.488 C9.6495,27.089 9.59175,26.753 9.49725,26.48 C9.40275,26.207 9.261,25.997 9.072,25.85 C8.883,25.703 8.61,25.6295 8.253,25.6295 C7.602,25.6295 7.08225,25.8395 6.69375,26.2595 C6.30525,26.6795 6.01125,27.18875 5.81175,27.78725 C5.61225,28.38575 5.48625,29 5.43375,29.63 C5.38125,30.26 5.355,30.785 5.355,31.205 C5.355,32.696 5.59125,33.7355 6.06375,34.3235 C6.53625,34.9115 7.287,35.2055 8.316,35.2055 Z M23.436,39.395 C21.987,39.395 20.78475,39.19025 19.82925,38.78075 C18.87375,38.37125 18.1125,37.8095 17.5455,37.0955 C16.9785,36.3815 16.5795,35.54675 16.3485,34.59125 C16.1175,33.63575 16.002,32.612 16.002,31.52 C16.002,30.26 16.15425,29.02625 16.45875,27.81875 C16.76325,26.61125 17.283,25.535 18.018,24.59 C18.753,23.645 19.72425,22.88375 20.93175,22.30625 C22.13925,21.72875 23.646,21.44 25.452,21.44 C28.098,21.44 29.99325,22.08575 31.13775,23.37725 C32.28225,24.66875 32.8545,26.48 32.8545,28.811 C32.8545,29.462 32.80725,30.18125 32.71275,30.96875 C32.61825,31.75625 32.43975,32.5385 32.17725,33.3155 C31.91475,34.0925 31.55775,34.8485 31.10625,35.5835 C30.65475,36.3185 30.0825,36.9695 29.3895,37.5365 C28.6965,38.1035 27.86175,38.555 26.88525,38.891 C25.90875,39.227 24.759,39.395 23.436,39.395 Z M24.9165,25.6295 C24.1185,25.6295 23.48325,25.83425 23.01075,26.24375 C22.53825,26.65325 22.18125,27.14675 21.93975,27.72425 C21.69825,28.30175 21.54075,28.91075 21.46725,29.55125 C21.39375,30.19175 21.357,30.7325 21.357,31.1735 C21.357,32.5595 21.5775,33.578 22.0185,34.229 C22.4595,34.88 23.0895,35.2055 23.9085,35.2055 C24.6435,35.2055 25.24725,34.9745 25.71975,34.5125 C26.19225,34.0505 26.55975,33.494 26.82225,32.843 C27.08475,32.192 27.26325,31.5095 27.35775,30.7955 C27.45225,30.0815 27.4995,29.483 27.4995,29 C27.4995,27.95 27.30525,27.12575 26.91675,26.52725 C26.52825,25.92875 25.8615,25.6295 24.9165,25.6295 Z M40.6665,33.41 C40.6035,34.376 40.53,35.29475 40.446,36.16625 C40.362,37.03775 40.299,37.799 40.257,38.45 C40.236,38.702 40.1835,38.87 40.0995,38.954 C40.0155,39.038 39.837,39.08 39.564,39.08 L38.43,39.08 C37.779,39.08 37.24875,39.01175 36.83925,38.87525 C36.42975,38.73875 36.10425,38.5445 35.86275,38.2925 C35.62125,38.0405 35.45325,37.73075 35.35875,37.36325 C35.26425,36.99575 35.217,36.5705 35.217,36.0875 C35.217,35.7725 35.23275,35.32625 35.26425,34.74875 C35.29575,34.17125 35.3535,33.37325 35.4375,32.35475 C35.5215,31.33625 35.62125,30.04475 35.73675,28.48025 C35.85225,26.91575 35.994,24.9785 36.162,22.6685 C36.183,22.2065 36.2355,21.9335 36.3195,21.8495 C36.3825,21.7865 36.5505,21.755 36.8235,21.755 L38.052,21.755 C38.682,21.755 39.1965,21.8285 39.5955,21.9755 C39.9945,22.1225 40.32,22.3115 40.572,22.5425 C40.824,22.7735 41.0025,23.0465 41.1075,23.3615 C41.2125,23.6765 41.2755,24.002 41.2965,24.338 C41.9055,23.204 42.5985,22.4375 43.3755,22.0385 C44.1525,21.6395 45.066,21.44 46.116,21.44 C46.683,21.44 47.229,21.4925 47.754,21.5975 C48.279,21.7025 48.7515,21.881 49.1715,22.133 C49.5915,22.385 49.9485,22.71575 50.2425,23.12525 C50.5365,23.53475 50.7465,24.0545 50.8725,24.6845 C51.5235,23.4665 52.2375,22.62125 53.0145,22.14875 C53.7915,21.67625 54.768,21.44 55.944,21.44 C56.595,21.44 57.21975,21.50825 57.81825,21.64475 C58.41675,21.78125 58.9365,22.0175 59.3775,22.3535 C59.8185,22.6895 60.17025,23.14625 60.43275,23.72375 C60.69525,24.30125 60.8265,25.0205 60.8265,25.8815 C60.8265,26.5325 60.795,27.3305 60.732,28.2755 C60.669,29.2205 60.5955,30.24425 60.5115,31.34675 C60.4275,32.44925 60.333,33.58325 60.228,34.74875 C60.123,35.91425 60.039,37.0325 59.976,38.1035 C59.955,38.3345 59.934,38.513 59.913,38.639 C59.892,38.765 59.85525,38.8595 59.80275,38.9225 C59.75025,38.9855 59.6715,39.0275 59.5665,39.0485 C59.4615,39.0695 59.3145,39.08 59.1255,39.08 L58.1175,39.08 C57.4455,39.08 56.8995,39.017 56.4795,38.891 C56.0595,38.765 55.734,38.5865 55.503,38.3555 C55.272,38.1245 55.10925,37.83575 55.01475,37.48925 C54.92025,37.14275 54.873,36.749 54.873,36.308 C54.873,36.035 54.88875,35.6465 54.92025,35.1425 C54.95175,34.6385 54.99375,34.0925 55.04625,33.5045 C55.09875,32.9165 55.15125,32.3075 55.20375,31.6775 C55.25625,31.0475 55.30875,30.46475 55.36125,29.92925 C55.41375,29.39375 55.45575,28.9265 55.48725,28.5275 C55.51875,28.1285 55.5345,27.866 55.5345,27.74 C55.5345,27.194 55.42425,26.711 55.20375,26.291 C54.98325,25.871 54.558,25.661 53.928,25.661 C53.382,25.661 52.9095,25.8395 52.5105,26.1965 C52.1115,26.5535 51.7755,27.047 51.5025,27.677 C51.2295,28.307 51.009,29.0525 50.841,29.9135 C50.673,30.7745 50.5575,31.709 50.4945,32.717 C50.4525,33.368 50.4,34.1135 50.337,34.9535 C50.274,35.7935 50.2005,36.8435 50.1165,38.1035 C50.0955,38.3345 50.0745,38.513 50.0535,38.639 C50.0325,38.765 49.99575,38.8595 49.94325,38.9225 C49.89075,38.9855 49.812,39.0275 49.707,39.0485 C49.602,39.0695 49.455,39.08 49.266,39.08 L48.258,39.08 C47.586,39.08 47.04,39.017 46.62,38.891 C46.2,38.765 45.8745,38.5865 45.6435,38.3555 C45.4125,38.1245 45.24975,37.83575 45.15525,37.48925 C45.06075,37.14275 45.0135,36.749 45.0135,36.308 C45.0135,35.888 45.05025,35.27375 45.12375,34.46525 C45.19725,33.65675 45.27075,32.81675 45.34425,31.94525 C45.41775,31.07375 45.49125,30.24425 45.56475,29.45675 C45.63825,28.66925 45.675,28.097 45.675,27.74 C45.675,27.194 45.56475,26.711 45.34425,26.291 C45.12375,25.871 44.6985,25.661 44.0685,25.661 C43.5015,25.661 43.0185,25.871 42.6195,26.291 C42.2205,26.711 41.88975,27.27275 41.62725,27.97625 C41.36475,28.67975 41.15475,29.504 40.99725,30.449 C40.83975,31.394 40.7295,32.381 40.6665,33.41 Z M74.529,21.44 C76.503,21.44 77.98875,22.049 78.98625,23.267 C79.98375,24.485 80.4825,26.4065 80.4825,29.0315 C80.4825,30.6695 80.2935,32.129 79.9155,33.41 C79.5375,34.691 79.0125,35.77775 78.3405,36.67025 C77.6685,37.56275 76.881,38.24 75.978,38.702 C75.075,39.164 74.0985,39.395 73.0485,39.395 C71.9355,39.395 71.064,39.1535 70.434,38.6705 C69.804,38.1875 69.3105,37.505 68.9535,36.623 C68.8905,37.379 68.838,37.9565 68.796,38.3555 C68.754,38.7545 68.7225,39.07475 68.7015,39.31625 C68.6805,39.55775 68.66475,39.773 68.65425,39.962 C68.64375,40.151 68.62275,40.403 68.59125,40.718 C68.55975,41.033 68.523,41.4635 68.481,42.0095 C68.439,42.5555 68.376,43.3115 68.292,44.2775 C68.271,44.5295 68.2185,44.6975 68.1345,44.7815 C68.0505,44.8655 67.872,44.9075 67.599,44.9075 L66.465,44.9075 C65.814,44.9075 65.28375,44.83925 64.87425,44.70275 C64.46475,44.56625 64.13925,44.372 63.89775,44.12 C63.65625,43.868 63.48825,43.55825 63.39375,43.19075 C63.29925,42.82325 63.252,42.398 63.252,41.915 C63.252,41.705 63.2835,41.138 63.3465,40.214 C63.4095,39.29 63.48825,38.18225 63.58275,36.89075 C63.67725,35.59925 63.78225,34.208 63.89775,32.717 C64.01325,31.226 64.1235,29.80325 64.2285,28.44875 C64.3335,27.09425 64.42275,25.892 64.49625,24.842 C64.56975,23.792 64.6275,23.0675 64.6695,22.6685 C64.6905,22.2065 64.743,21.9335 64.827,21.8495 C64.89,21.7865 65.058,21.755 65.331,21.755 L66.5595,21.755 C67.6935,21.755 68.51775,21.99125 69.03225,22.46375 C69.54675,22.93625 69.804,23.498 69.804,24.149 C70.287,23.183 70.91175,22.49 71.67825,22.07 C72.44475,21.65 73.395,21.44 74.529,21.44 Z M72.2295,25.6295 C71.1585,25.6295 70.371,26.0915 69.867,27.0155 C69.363,27.9395 69.111,29.1995 69.111,30.7955 C69.111,31.3415 69.14775,31.877 69.22125,32.402 C69.29475,32.927 69.426,33.3995 69.615,33.8195 C69.804,34.2395 70.06125,34.5755 70.38675,34.8275 C70.71225,35.0795 71.127,35.2055 71.631,35.2055 C72.534,35.2055 73.29,34.7645 73.899,33.8825 C74.508,33.0005 74.8125,31.6145 74.8125,29.7245 C74.8125,29.1995 74.77575,28.69025 74.70225,28.19675 C74.62875,27.70325 74.4975,27.2675 74.3085,26.8895 C74.1195,26.5115 73.857,26.207 73.521,25.976 C73.185,25.745 72.7545,25.6295 72.2295,25.6295 Z M93.0825,29.2835 C92.9565,29.2835 92.81475,29.27825 92.65725,29.26775 C92.49975,29.25725 92.3475,29.23625 92.2005,29.20475 C92.0535,29.17325 91.9275,29.13125 91.8225,29.07875 C91.7175,29.02625 91.665,28.958 91.665,28.874 C91.665,28.601 91.6755,28.349 91.6965,28.118 C91.7175,27.887 91.728,27.6455 91.728,27.3935 C91.728,26.9315 91.665,26.5535 91.539,26.2595 C91.413,25.9655 91.161,25.8185 90.783,25.8185 C90.195,25.8185 89.70675,26.20175 89.31825,26.96825 C88.92975,27.73475 88.683,28.8845 88.578,30.4175 C88.536,31.0895 88.47825,31.85075 88.40475,32.70125 C88.33125,33.55175 88.263,34.37075 88.2,35.15825 C88.137,35.94575 88.0845,36.644 88.0425,37.253 C88.0005,37.862 87.9795,38.261 87.9795,38.45 C87.9795,38.66 87.906,38.8175 87.759,38.9225 C87.612,39.0275 87.4545,39.08 87.2865,39.08 L86.1525,39.08 C85.5015,39.08 84.97125,39.01175 84.56175,38.87525 C84.15225,38.73875 83.82675,38.5445 83.58525,38.2925 C83.34375,38.0405 83.17575,37.73075 83.08125,37.36325 C82.98675,36.99575 82.9395,36.5705 82.9395,36.0875 C82.9395,35.7725 82.95525,35.32625 82.98675,34.74875 C83.01825,34.17125 83.076,33.37325 83.16,32.35475 C83.244,31.33625 83.34375,30.04475 83.45925,28.48025 C83.57475,26.91575 83.7165,24.9785 83.8845,22.6685 C83.9265,22.0595 84.147,21.755 84.546,21.755 L85.7745,21.755 C86.3625,21.755 86.856,21.818 87.255,21.944 C87.654,22.07 87.9795,22.24325 88.2315,22.46375 C88.4835,22.68425 88.66725,22.9415 88.78275,23.2355 C88.89825,23.5295 88.977,23.834 89.019,24.149 C89.271,23.666 89.57025,23.25125 89.91675,22.90475 C90.26325,22.55825 90.6255,22.27475 91.0035,22.05425 C91.3815,21.83375 91.77,21.67625 92.169,21.58175 C92.568,21.48725 92.9355,21.44 93.2715,21.44 C93.6705,21.44 94.07475,21.5135 94.48425,21.6605 C94.89375,21.8075 95.2665,22.028 95.6025,22.322 C95.9385,22.616 96.20625,22.994 96.40575,23.456 C96.60525,23.918 96.705,24.464 96.705,25.094 C96.705,25.661 96.621,26.1965 96.453,26.7005 C96.285,27.2045 96.0435,27.65075 95.7285,28.03925 C95.4135,28.42775 95.03025,28.73225 94.57875,28.95275 C94.12725,29.17325 93.6285,29.2835 93.0825,29.2835 Z M96.9255,35.2055 C96.9255,33.3155 97.776,31.835 99.477,30.764 C101.178,29.693 103.6875,29.1155 107.0055,29.0315 C107.0265,28.8005 107.04225,28.60625 107.05275,28.44875 C107.06325,28.29125 107.0685,28.097 107.0685,27.866 C107.0685,27.194 106.9425,26.6585 106.6905,26.2595 C106.4385,25.8605 105.9135,25.661 105.1155,25.661 C104.6745,25.661 104.3175,25.724 104.0445,25.85 C103.7715,25.976 103.551,26.14925 103.383,26.36975 C103.215,26.59025 103.0785,26.858 102.9735,27.173 C102.8685,27.488 102.774,27.8345 102.69,28.2125 C102.648,28.4015 102.5535,28.52225 102.4065,28.57475 C102.2595,28.62725 102.0285,28.6535 101.7135,28.6535 C99.5715,28.6535 98.5005,27.845 98.5005,26.228 C98.5005,25.577 98.65275,24.9575 98.95725,24.3695 C99.26175,23.7815 99.71325,23.27225 100.31175,22.84175 C100.91025,22.41125 101.661,22.07 102.564,21.818 C103.467,21.566 104.517,21.44 105.714,21.44 C108.045,21.44 109.7355,21.923 110.7855,22.889 C111.8355,23.855 112.3605,25.22 112.3605,26.984 C112.3605,27.215 112.33425,27.62975 112.28175,28.22825 C112.22925,28.82675 112.16625,29.45675 112.09275,30.11825 C112.01925,30.77975 111.95625,31.4045 111.90375,31.9925 C111.85125,32.5805 111.825,32.99 111.825,33.221 C111.825,33.746 111.9195,34.11875 112.1085,34.33925 C112.2975,34.55975 112.51275,34.712 112.75425,34.796 C112.99575,34.88 113.211,34.943 113.4,34.985 C113.589,35.027 113.6835,35.132 113.6835,35.3 C113.6835,35.762 113.6205,36.2345 113.4945,36.7175 C113.3685,37.2005 113.16375,37.6415 112.88025,38.0405 C112.59675,38.4395 112.20825,38.765 111.71475,39.017 C111.22125,39.269 110.6175,39.395 109.9035,39.395 C108.8955,39.395 108.1395,39.1535 107.6355,38.6705 C107.1315,38.1875 106.7955,37.5155 106.6275,36.6545 C106.1235,37.3895 105.46725,38.03 104.65875,38.576 C103.85025,39.122 102.795,39.395 101.493,39.395 C100.863,39.395 100.26975,39.3215 99.71325,39.1745 C99.15675,39.0275 98.67375,38.786 98.26425,38.45 C97.85475,38.114 97.52925,37.67825 97.28775,37.14275 C97.04625,36.60725 96.9255,35.9615 96.9255,35.2055 Z M106.722,31.6145 C106.176,31.6145 105.6405,31.6565 105.1155,31.7405 C104.5905,31.8245 104.12325,31.95575 103.71375,32.13425 C103.30425,32.31275 102.9735,32.549 102.7215,32.843 C102.4695,33.137 102.3435,33.494 102.3435,33.914 C102.3435,34.397 102.49575,34.733 102.80025,34.922 C103.10475,35.111 103.4355,35.2055 103.7925,35.2055 C104.1285,35.2055 104.4645,35.132 104.8005,34.985 C105.1365,34.838 105.43575,34.61225 105.69825,34.30775 C105.96075,34.00325 106.1865,33.6305 106.3755,33.1895 C106.5645,32.7485 106.68,32.2235 106.722,31.6145 Z M12.6265,4.08 C13.0398333,4.08 13.3798333,4.12 13.6465,4.2 C13.9131667,4.28 14.1231667,4.39333333 14.2765,4.54 C14.4298333,4.68666667 14.5365,4.86333333 14.5965,5.07 C14.6565,5.27666667 14.6865,5.51333333 14.6865,5.78 C14.6865,6.06 14.6631667,6.45333333 14.6165,6.96 C14.5698333,7.46666667 14.5231667,7.99333333 14.4765,8.54 C14.4298333,9.08666667 14.3831667,9.6 14.3365,10.08 C14.2898333,10.56 14.2665,10.9066667 14.2665,11.12 C14.2665,11.5866667 14.3831667,11.95 14.6165,12.21 C14.8498333,12.47 15.1731667,12.6 15.5865,12.6 C15.9465,12.6 16.2498333,12.4566667 16.4965,12.17 C16.7431667,11.8833333 16.9431667,11.51 17.0965,11.05 C17.2498333,10.59 17.3731667,10.0666667 17.4665,9.48 C17.5598333,8.89333333 17.6298333,8.3 17.6765,7.7 C17.7231667,7.1 17.7631667,6.51666667 17.7965,5.95 C17.8298333,5.38333333 17.8665,4.89333333 17.9065,4.48 C17.9198333,4.37333333 17.9598333,4.28 18.0265,4.2 C18.0931667,4.12 18.1998333,4.08 18.3465,4.08 L19.0665,4.08 C19.4798333,4.08 19.8165,4.12333333 20.0765,4.21 C20.3365,4.29666667 20.5431667,4.42 20.6965,4.58 C20.8498333,4.74 20.9565,4.93666667 21.0165,5.17 C21.0765,5.40333333 21.1065,5.67333333 21.1065,5.98 C21.1065,6.18 21.0965,6.46333333 21.0765,6.83 C21.0565,7.19666667 21.0198333,7.70333333 20.9665,8.35 C20.9131667,8.99666667 20.8498333,9.81666667 20.7765,10.81 C20.7031667,11.8033333 20.6131667,13.0333333 20.5065,14.5 C20.4798333,14.78 20.4498333,14.9466667 20.4165,15 C20.3831667,15.0533333 20.2731667,15.08 20.0865,15.08 L19.3065,15.08 C18.9065,15.08 18.5765,15.0333333 18.3165,14.94 C18.0565,14.8466667 17.8465,14.7266667 17.6865,14.58 C17.5265,14.4333333 17.4131667,14.26 17.3465,14.06 C17.2798333,13.86 17.2398333,13.6533333 17.2265,13.44 C17.0265,13.7866667 16.8031667,14.08 16.5565,14.32 C16.3098333,14.56 16.0531667,14.75 15.7865,14.89 C15.5198333,15.03 15.2465,15.13 14.9665,15.19 C14.6865,15.25 14.4131667,15.28 14.1465,15.28 C13.6398333,15.28 13.1865,15.1966667 12.7865,15.03 C12.3865,14.8633333 12.0498333,14.64 11.7765,14.36 C11.5031667,14.08 11.2931667,13.7466667 11.1465,13.36 C10.9998333,12.9733333 10.9265,12.56 10.9265,12.12 C10.9265,11.9466667 10.9365,11.6633333 10.9565,11.27 C10.9765,10.8766667 11.0031667,10.4333333 11.0365,9.94 C11.0698333,9.44666667 11.1065,8.92333333 11.1465,8.37 C11.1865,7.81666667 11.2231667,7.29333333 11.2565,6.8 C11.2898333,6.30666667 11.3231667,5.87333333 11.3565,5.5 C11.3898333,5.12666667 11.4131667,4.86 11.4265,4.7 C11.4531667,4.46 11.5065,4.29666667 11.5865,4.21 C11.6665,4.12333333 11.7998333,4.08 11.9865,4.08 L12.6265,4.08 Z M11.0265,0.88 C11.1065,0.88 11.1798333,0.9 11.2465,0.94 C11.3131667,0.98 11.3465,1.05333333 11.3465,1.16 L11.2665,2.34 C11.2398333,2.74 11.1298333,3.06333333 10.9365,3.31 C10.7431667,3.55666667 10.3465,3.68 9.7465,3.68 L7.5865,3.68 L6.8265,14.78 C6.81316667,14.98 6.73983333,15.08 6.6065,15.08 L5.5065,15.08 C4.75983333,15.08 4.2265,14.9333333 3.9065,14.64 C3.5865,14.3466667 3.4265,13.9266667 3.4265,13.38 C3.4265,13.18 3.4365,12.88 3.4565,12.48 C3.4765,12.08 3.5065,11.61 3.5465,11.07 C3.5865,10.53 3.62983333,9.94333333 3.6765,9.31 C3.72316667,8.67666667 3.77316667,8.03666667 3.8265,7.39 C3.87983333,6.74333333 3.92983333,6.1 3.9765,5.46 C4.02316667,4.82 4.0665,4.22666667 4.1065,3.68 L0.9065,3.68 C0.759833333,3.68 0.6865,3.58666667 0.6865,3.4 L0.7465,2.28 C0.759833333,2.10666667 0.789833333,1.93666667 0.8365,1.77 C0.883166667,1.60333333 0.959833333,1.45333333 1.0665,1.32 C1.17316667,1.18666667 1.30983333,1.08 1.4765,1 C1.64316667,0.92 1.8465,0.88 2.0865,0.88 L11.0265,0.88 Z M31.8265,3.88 C32.9598333,3.88 33.7931667,4.10333333 34.3265,4.55 C34.8598333,4.99666667 35.1265,5.56666667 35.1265,6.26 C35.1265,6.84666667 34.9431667,7.29333333 34.5765,7.6 C34.2098333,7.90666667 33.6798333,8.06 32.9865,8.06 C32.7998333,8.06 32.6731667,8.04 32.6065,8 C32.5398333,7.96 32.5065,7.88666667 32.5065,7.78 C32.5065,7.66 32.4965,7.52333333 32.4765,7.37 C32.4565,7.21666667 32.4098333,7.07 32.3365,6.93 C32.2631667,6.79 32.1498333,6.67333333 31.9965,6.58 C31.8431667,6.48666667 31.6265,6.44 31.3465,6.44 C30.9731667,6.44 30.6731667,6.53 30.4465,6.71 C30.2198333,6.89 30.1065,7.11333333 30.1065,7.38 C30.1065,7.66 30.2231667,7.88333333 30.4565,8.05 C30.6898333,8.21666667 30.9831667,8.37333333 31.3365,8.52 C31.6898333,8.66666667 32.0731667,8.81666667 32.4865,8.97 C32.8998333,9.12333333 33.2831667,9.32666667 33.6365,9.58 C33.9898333,9.83333333 34.2831667,10.15 34.5165,10.53 C34.7498333,10.91 34.8665,11.4 34.8665,12 C34.8665,12.96 34.5265,13.7466667 33.8465,14.36 C33.1665,14.9733333 32.1465,15.28 30.7865,15.28 C30.4131667,15.28 29.9831667,15.25 29.4965,15.19 C29.0098333,15.13 28.5465,15.0366667 28.1065,14.91 C27.6665,14.7833333 27.2965,14.6133333 26.9965,14.4 C26.6965,14.1866667 26.5465,13.92 26.5465,13.6 C26.5465,13.48 26.5698333,13.3333333 26.6165,13.16 C26.6631667,12.9866667 26.7365,12.82 26.8365,12.66 C26.9365,12.5 27.0565,12.3633333 27.1965,12.25 C27.3365,12.1366667 27.5065,12.08 27.7065,12.08 C27.8665,12.08 28.0131667,12.12 28.1465,12.2 C28.2798333,12.28 28.4365,12.3633333 28.6165,12.45 C28.7965,12.5366667 29.0198333,12.62 29.2865,12.7 C29.5531667,12.78 29.9065,12.82 30.3465,12.82 C30.6798333,12.82 30.9765,12.78 31.2365,12.7 C31.4965,12.62 31.6265,12.44 31.6265,12.16 C31.6265,11.9066667 31.5198333,11.7033333 31.3065,11.55 C31.0931667,11.3966667 30.8231667,11.2533333 30.4965,11.12 C30.1698333,10.9866667 29.8165,10.8433333 29.4365,10.69 C29.0565,10.5366667 28.7031667,10.3333333 28.3765,10.08 C28.0498333,9.82666667 27.7798333,9.50333333 27.5665,9.11 C27.3531667,8.71666667 27.2465,8.20666667 27.2465,7.58 C27.2465,6.9 27.3831667,6.32333333 27.6565,5.85 C27.9298333,5.37666667 28.2831667,4.99333333 28.7165,4.7 C29.1498333,4.40666667 29.6398333,4.19666667 30.1865,4.07 C30.7331667,3.94333333 31.2798333,3.88 31.8265,3.88 Z M38.6265,15.08 C38.2131667,15.08 37.8765,15.0366667 37.6165,14.95 C37.3565,14.8633333 37.1498333,14.74 36.9965,14.58 C36.8431667,14.42 36.7365,14.2233333 36.6765,13.99 C36.6165,13.7566667 36.5865,13.4866667 36.5865,13.18 C36.5865,12.98 36.5965,12.6966667 36.6165,12.33 C36.6365,11.9633333 36.6731667,11.4566667 36.7265,10.81 C36.7798333,10.1633333 36.8431667,9.34333333 36.9165,8.35 C36.9898333,7.35666667 37.0798333,6.12666667 37.1865,4.66 C37.1998333,4.36666667 37.2331667,4.19333333 37.2865,4.14 C37.3265,4.1 37.4331667,4.08 37.6065,4.08 L38.3865,4.08 C38.7998333,4.08 39.1365,4.12 39.3965,4.2 C39.6565,4.28 39.8631667,4.4 40.0165,4.56 C40.1698333,4.72 40.2765,4.91333333 40.3365,5.14 C40.3965,5.36666667 40.4265,5.62 40.4265,5.9 C40.4265,6.1 40.4131667,6.4 40.3865,6.8 C40.3598333,7.2 40.3231667,7.74333333 40.2765,8.43 C40.2298333,9.11666667 40.1665,9.97 40.0865,10.99 C40.0065,12.01 39.9065,13.24 39.7865,14.68 C39.7731667,14.84 39.7398333,14.9466667 39.6865,15 C39.6331667,15.0533333 39.5198333,15.08 39.3465,15.08 L38.6265,15.08 Z M37.2065,1.72 C37.2065,1.18666667 37.3998333,0.766666667 37.7865,0.46 C38.1731667,0.153333333 38.6931667,0 39.3465,0 C39.9198333,0 40.3365,0.116666667 40.5965,0.35 C40.8565,0.583333333 40.9865,0.893333333 40.9865,1.28 C40.9865,1.77333333 40.8031667,2.18333333 40.4365,2.51 C40.0698333,2.83666667 39.5331667,3 38.8265,3 C37.7465,3 37.2065,2.57333333 37.2065,1.72 Z M48.7265,12.72 C48.3931667,13.32 47.9865,13.7633333 47.5065,14.05 C47.0265,14.3366667 46.4265,14.48 45.7065,14.48 C45.1598333,14.48 44.6598333,14.3933333 44.2065,14.22 C43.7531667,14.0466667 43.3665,13.7733333 43.0465,13.4 C42.7265,13.0266667 42.4765,12.5566667 42.2965,11.99 C42.1165,11.4233333 42.0265,10.7466667 42.0265,9.96 C42.0265,9.32 42.0931667,8.64333333 42.2265,7.93 C42.3598333,7.21666667 42.6031667,6.56 42.9565,5.96 C43.3098333,5.36 43.7931667,4.86333333 44.4065,4.47 C45.0198333,4.07666667 45.8065,3.88 46.7665,3.88 C47.1665,3.88 47.5098333,3.92333333 47.7965,4.01 C48.0831667,4.09666667 48.3298333,4.21333333 48.5365,4.36 C48.7431667,4.50666667 48.9098333,4.68 49.0365,4.88 C49.1631667,5.08 49.2598333,5.29333333 49.3265,5.52 C49.3265,5.53333333 49.3298333,5.48333333 49.3365,5.37 C49.3431667,5.25666667 49.3531667,5.12666667 49.3665,4.98 C49.3798333,4.83333333 49.3898333,4.69 49.3965,4.55 C49.4031667,4.41 49.4065,4.32 49.4065,4.28 C49.4198333,4.14666667 49.5065,4.08 49.6665,4.08 L50.5865,4.08 C51.2798333,4.08 51.7831667,4.22333333 52.0965,4.51 C52.4098333,4.79666667 52.5665,5.34 52.5665,6.14 C52.5665,6.24666667 52.5598333,6.49 52.5465,6.87 C52.5331667,7.25 52.5098333,7.70666667 52.4765,8.24 C52.4431667,8.77333333 52.3998333,9.36333333 52.3465,10.01 C52.2931667,10.6566667 52.2331667,11.3066667 52.1665,11.96 C52.0998333,12.6133333 52.0265,13.24 51.9465,13.84 C51.8665,14.44 51.7798333,14.9666667 51.6865,15.42 C51.5931667,15.8733333 51.4331667,16.3133333 51.2065,16.74 C50.9798333,17.1666667 50.6598333,17.5466667 50.2465,17.88 C49.8331667,18.2133333 49.3031667,18.48 48.6565,18.68 C48.0098333,18.88 47.2198333,18.98 46.2865,18.98 C45.5798333,18.98 44.9631667,18.9133333 44.4365,18.78 C43.9098333,18.6466667 43.4731667,18.47 43.1265,18.25 C42.7798333,18.03 42.5165,17.78 42.3365,17.5 C42.1565,17.22 42.0665,16.94 42.0665,16.66 C42.0665,16.4066667 42.1198333,16.1866667 42.2265,16 C42.3331667,15.8133333 42.4731667,15.66 42.6465,15.54 C42.8198333,15.42 43.0098333,15.33 43.2165,15.27 C43.4231667,15.21 43.6198333,15.18 43.8065,15.18 C44.0331667,15.18 44.1998333,15.2466667 44.3065,15.38 C44.4131667,15.5133333 44.5331667,15.6633333 44.6665,15.83 C44.7998333,15.9966667 44.9865,16.1466667 45.2265,16.28 C45.4665,16.4133333 45.8398333,16.48 46.3465,16.48 C47.2265,16.48 47.8431667,16.1566667 48.1965,15.51 C48.5498333,14.8633333 48.7265,13.9333333 48.7265,12.72 Z M47.0465,11.82 C47.5265,11.82 47.9031667,11.7066667 48.1765,11.48 C48.4498333,11.2533333 48.6598333,10.98 48.8065,10.66 C48.9531667,10.34 49.0465,10.0066667 49.0865,9.66 C49.1265,9.31333333 49.1465,9.01333333 49.1465,8.76 C49.1465,7.96 49.0231667,7.39 48.7765,7.05 C48.5298333,6.71 48.1598333,6.54 47.6665,6.54 C47.1731667,6.54 46.7865,6.67333333 46.5065,6.94 C46.2265,7.20666667 46.0165,7.52333333 45.8765,7.89 C45.7365,8.25666667 45.6465,8.62333333 45.6065,8.99 C45.5665,9.35666667 45.5465,9.64 45.5465,9.84 C45.5465,10.5066667 45.6598333,11.0033333 45.8865,11.33 C46.1131667,11.6566667 46.4998333,11.82 47.0465,11.82 Z M58.1465,5.78 C58.1465,6.06 58.1231667,6.45333333 58.0765,6.96 C58.0298333,7.46666667 57.9831667,7.99333333 57.9365,8.54 C57.8898333,9.08666667 57.8431667,9.6 57.7965,10.08 C57.7498333,10.56 57.7265,10.9066667 57.7265,11.12 C57.7265,11.5866667 57.8431667,11.95 58.0765,12.21 C58.3098333,12.47 58.6331667,12.6 59.0465,12.6 C59.4065,12.6 59.7098333,12.4566667 59.9565,12.17 C60.2031667,11.8833333 60.4031667,11.51 60.5565,11.05 C60.7098333,10.59 60.8331667,10.0666667 60.9265,9.48 C61.0198333,8.89333333 61.0898333,8.3 61.1365,7.7 C61.1831667,7.1 61.2231667,6.51666667 61.2565,5.95 C61.2898333,5.38333333 61.3265,4.89333333 61.3665,4.48 C61.3798333,4.37333333 61.4198333,4.28 61.4865,4.2 C61.5531667,4.12 61.6598333,4.08 61.8065,4.08 L62.5265,4.08 C62.9398333,4.08 63.2765,4.12333333 63.5365,4.21 C63.7965,4.29666667 64.0031667,4.42 64.1565,4.58 C64.3098333,4.74 64.4165,4.93666667 64.4765,5.17 C64.5365,5.40333333 64.5665,5.67333333 64.5665,5.98 C64.5665,6.18 64.5565,6.46333333 64.5365,6.83 C64.5165,7.19666667 64.4798333,7.70333333 64.4265,8.35 C64.3731667,8.99666667 64.3098333,9.81666667 64.2365,10.81 C64.1631667,11.8033333 64.0731667,13.0333333 63.9665,14.5 C63.9398333,14.78 63.9098333,14.9466667 63.8765,15 C63.8431667,15.0533333 63.7331667,15.08 63.5465,15.08 L62.7665,15.08 C62.3665,15.08 62.0365,15.0333333 61.7765,14.94 C61.5165,14.8466667 61.3065,14.7266667 61.1465,14.58 C60.9865,14.4333333 60.8731667,14.26 60.8065,14.06 C60.7398333,13.86 60.6998333,13.6533333 60.6865,13.44 C60.4865,13.7866667 60.2631667,14.08 60.0165,14.32 C59.7698333,14.56 59.5131667,14.75 59.2465,14.89 C58.9798333,15.03 58.7065,15.13 58.4265,15.19 C58.1465,15.25 57.8731667,15.28 57.6065,15.28 C57.0998333,15.28 56.6465,15.1966667 56.2465,15.03 C55.8465,14.8633333 55.5098333,14.64 55.2365,14.36 C54.9631667,14.08 54.7531667,13.7466667 54.6065,13.36 C54.4598333,12.9733333 54.3865,12.56 54.3865,12.12 C54.3865,11.9466667 54.3965,11.6633333 54.4165,11.27 C54.4365,10.8766667 54.4631667,10.4333333 54.4965,9.94 C54.5298333,9.44666667 54.5665,8.92333333 54.6065,8.37 C54.6465,7.81666667 54.6831667,7.29333333 54.7165,6.8 C54.7498333,6.30666667 54.7831667,5.87333333 54.8165,5.5 C54.8498333,5.12666667 54.8731667,4.86 54.8865,4.7 C54.9131667,4.46 54.9665,4.29666667 55.0465,4.21 C55.1265,4.12333333 55.2598333,4.08 55.4465,4.08 L56.0865,4.08 C56.4998333,4.08 56.8398333,4.12 57.1065,4.2 C57.3731667,4.28 57.5831667,4.39333333 57.7365,4.54 C57.8898333,4.68666667 57.9965,4.86333333 58.0565,5.07 C58.1165,5.27666667 58.1465,5.51333333 58.1465,5.78 Z M68.3865,15.08 C67.9731667,15.08 67.6365,15.0366667 67.3765,14.95 C67.1165,14.8633333 66.9098333,14.74 66.7565,14.58 C66.6031667,14.42 66.4965,14.2233333 66.4365,13.99 C66.3765,13.7566667 66.3465,13.4866667 66.3465,13.18 C66.3465,12.98 66.3565,12.6966667 66.3765,12.33 C66.3965,11.9633333 66.4331667,11.4566667 66.4865,10.81 C66.5398333,10.1633333 66.6031667,9.34333333 66.6765,8.35 C66.7498333,7.35666667 66.8398333,6.12666667 66.9465,4.66 C66.9598333,4.36666667 66.9931667,4.19333333 67.0465,4.14 C67.0865,4.1 67.1931667,4.08 67.3665,4.08 L68.1465,4.08 C68.5598333,4.08 68.8965,4.12 69.1565,4.2 C69.4165,4.28 69.6231667,4.4 69.7765,4.56 C69.9298333,4.72 70.0365,4.91333333 70.0965,5.14 C70.1565,5.36666667 70.1865,5.62 70.1865,5.9 C70.1865,6.1 70.1731667,6.4 70.1465,6.8 C70.1198333,7.2 70.0831667,7.74333333 70.0365,8.43 C69.9898333,9.11666667 69.9265,9.97 69.8465,10.99 C69.7665,12.01 69.6665,13.24 69.5465,14.68 C69.5331667,14.84 69.4998333,14.9466667 69.4465,15 C69.3931667,15.0533333 69.2798333,15.08 69.1065,15.08 L68.3865,15.08 Z M66.9665,1.72 C66.9665,1.18666667 67.1598333,0.766666667 67.5465,0.46 C67.9331667,0.153333333 68.4531667,0 69.1065,0 C69.6798333,0 70.0965,0.116666667 70.3565,0.35 C70.6165,0.583333333 70.7465,0.893333333 70.7465,1.28 C70.7465,1.77333333 70.5631667,2.18333333 70.1965,2.51 C69.8298333,2.83666667 69.2931667,3 68.5865,3 C67.5065,3 66.9665,2.57333333 66.9665,1.72 Z M76.5665,15.28 C75.9798333,15.28 75.3965,15.2066667 74.8165,15.06 C74.2365,14.9133333 73.7165,14.66 73.2565,14.3 C72.7965,13.94 72.4198333,13.46 72.1265,12.86 C71.8331667,12.26 71.6865,11.5066667 71.6865,10.6 C71.6865,10.2666667 71.7131667,9.86666667 71.7665,9.4 C71.8198333,8.93333333 71.9231667,8.45333333 72.0765,7.96 C72.2298333,7.46666667 72.4431667,6.97666667 72.7165,6.49 C72.9898333,6.00333333 73.3465,5.56666667 73.7865,5.18 C74.2265,4.79333333 74.7598333,4.48 75.3865,4.24 C76.0131667,4 76.7598333,3.88 77.6265,3.88 C78.3198333,3.88 78.9065,3.96 79.3865,4.12 C79.8665,4.28 80.2531667,4.49666667 80.5465,4.77 C80.8398333,5.04333333 81.0531667,5.36 81.1865,5.72 C81.3198333,6.08 81.3865,6.46666667 81.3865,6.88 C81.3865,7.49333333 81.2631667,8.01333333 81.0165,8.44 C80.7698333,8.86666667 80.4498333,9.22333333 80.0565,9.51 C79.6631667,9.79666667 79.2265,10.02 78.7465,10.18 C78.2665,10.34 77.7931667,10.4633333 77.3265,10.55 C76.8598333,10.6366667 76.4298333,10.69 76.0365,10.71 C75.6431667,10.73 75.3398333,10.74 75.1265,10.74 C75.1265,10.9933333 75.1631667,11.2433333 75.2365,11.49 C75.3098333,11.7366667 75.4198333,11.9533333 75.5665,12.14 C75.7131667,12.3266667 75.9065,12.48 76.1465,12.6 C76.3865,12.72 76.6798333,12.78 77.0265,12.78 C77.3731667,12.78 77.6431667,12.7233333 77.8365,12.61 C78.0298333,12.4966667 78.1865,12.37 78.3065,12.23 C78.4265,12.09 78.5298333,11.9633333 78.6165,11.85 C78.7031667,11.7366667 78.8198333,11.68 78.9665,11.68 C79.0331667,11.68 79.1498333,11.6966667 79.3165,11.73 C79.4831667,11.7633333 79.6531667,11.8333333 79.8265,11.94 C79.9998333,12.0466667 80.1531667,12.1933333 80.2865,12.38 C80.4198333,12.5666667 80.4865,12.8066667 80.4865,13.1 C80.4865,13.4866667 80.3665,13.82 80.1265,14.1 C79.8865,14.38 79.5765,14.6066667 79.1965,14.78 C78.8165,14.9533333 78.3931667,15.08 77.9265,15.16 C77.4598333,15.24 77.0065,15.28 76.5665,15.28 Z M76.9465,6.54 C76.6531667,6.54 76.4031667,6.62333333 76.1965,6.79 C75.9898333,6.95666667 75.8165,7.16666667 75.6765,7.42 C75.5365,7.67333333 75.4298333,7.95333333 75.3565,8.26 C75.2831667,8.56666667 75.2265,8.86 75.1865,9.14 C76.0131667,9.12666667 76.6831667,8.98666667 77.1965,8.72 C77.7098333,8.45333333 77.9665,8.07333333 77.9665,7.58 C77.9665,7.31333333 77.8831667,7.07333333 77.7165,6.86 C77.5498333,6.64666667 77.2931667,6.54 76.9465,6.54 Z M89.4065,13.32 C89.4065,13.0266667 89.4298333,12.6433333 89.4765,12.17 C89.5231667,11.6966667 89.5698333,11.1966667 89.6165,10.67 C89.6631667,10.1433333 89.7098333,9.63333333 89.7565,9.14 C89.8031667,8.64666667 89.8265,8.23333333 89.8265,7.9 C89.8265,7.55333333 89.7431667,7.24333333 89.5765,6.97 C89.4098333,6.69666667 89.0865,6.56 88.6065,6.56 C88.1398333,6.56 87.7531667,6.67333333 87.4465,6.9 C87.1398333,7.12666667 86.8831667,7.54 86.6765,8.14 C86.4698333,8.74 86.2998333,9.56666667 86.1665,10.62 C86.0331667,11.6733333 85.9065,13.0266667 85.7865,14.68 C85.7731667,14.84 85.7398333,14.9466667 85.6865,15 C85.6331667,15.0533333 85.5198333,15.08 85.3465,15.08 L84.6265,15.08 C84.2131667,15.08 83.8765,15.0366667 83.6165,14.95 C83.3565,14.8633333 83.1498333,14.74 82.9965,14.58 C82.8431667,14.42 82.7365,14.2233333 82.6765,13.99 C82.6165,13.7566667 82.5865,13.4866667 82.5865,13.18 C82.5865,12.98 82.5965,12.6966667 82.6165,12.33 C82.6365,11.9633333 82.6731667,11.4566667 82.7265,10.81 C82.7798333,10.1633333 82.8431667,9.34333333 82.9165,8.35 C82.9898333,7.35666667 83.0798333,6.12666667 83.1865,4.66 C83.1998333,4.36666667 83.2331667,4.19333333 83.2865,4.14 C83.3265,4.1 83.4331667,4.08 83.6065,4.08 L84.3865,4.08 C84.7865,4.08 85.1165,4.12666667 85.3765,4.22 C85.6365,4.31333333 85.8465,4.43666667 86.0065,4.59 C86.1665,4.74333333 86.2798333,4.92333333 86.3465,5.13 C86.4131667,5.33666667 86.4531667,5.54666667 86.4665,5.76 C86.8798333,5.05333333 87.3531667,4.56333333 87.8865,4.29 C88.4198333,4.01666667 89.0865,3.88 89.8865,3.88 C90.4465,3.88 90.9331667,3.94 91.3465,4.06 C91.7598333,4.18 92.1031667,4.38333333 92.3765,4.67 C92.6498333,4.95666667 92.8531667,5.33 92.9865,5.79 C93.1198333,6.25 93.1865,6.82 93.1865,7.5 C93.1865,7.71333333 93.1731667,8.02 93.1465,8.42 C93.1198333,8.82 93.0865,9.25666667 93.0465,9.73 C93.0065,10.2033333 92.9631667,10.6966667 92.9165,11.21 C92.8698333,11.7233333 92.8265,12.2 92.7865,12.64 C92.7465,13.08 92.7131667,13.4666667 92.6865,13.8 C92.6598333,14.1333333 92.6465,14.3533333 92.6465,14.46 C92.6465,14.7533333 92.6131667,14.93 92.5465,14.99 C92.4798333,15.05 92.3331667,15.08 92.1065,15.08 L91.4665,15.08 C91.0398333,15.08 90.6931667,15.04 90.4265,14.96 C90.1598333,14.88 89.9531667,14.7666667 89.8065,14.62 C89.6598333,14.4733333 89.5565,14.29 89.4965,14.07 C89.4365,13.85 89.4065,13.6 89.4065,13.32 Z M99.2665,6.78 C99.2265,7.28666667 99.1831667,7.78666667 99.1365,8.28 C99.0898333,8.77333333 99.0465,9.24 99.0065,9.68 C98.9665,10.12 98.9365,10.5133333 98.9165,10.86 C98.8965,11.2066667 98.8865,11.4733333 98.8865,11.66 C98.8865,12.0066667 98.9265,12.2366667 99.0065,12.35 C99.0865,12.4633333 99.2198333,12.52 99.4065,12.52 C99.5531667,12.52 99.6798333,12.4933333 99.7865,12.44 C99.8931667,12.3866667 99.9931667,12.3266667 100.0865,12.26 C100.179833,12.1933333 100.263167,12.1333333 100.3365,12.08 C100.409833,12.0266667 100.493167,12 100.5865,12 C100.679833,12 100.7665,12.0533333 100.8465,12.16 C100.9265,12.2666667 100.9665,12.5133333 100.9665,12.9 C100.9665,13.6333333 100.7665,14.2133333 100.3665,14.64 C99.9665,15.0666667 99.2798333,15.28 98.3065,15.28 C97.3465,15.28 96.6365,15.0566667 96.1765,14.61 C95.7165,14.1633333 95.4865,13.48 95.4865,12.56 C95.4865,12.36 95.4965,12.1233333 95.5165,11.85 C95.5365,11.5766667 95.5665,11.22 95.6065,10.78 C95.6465,10.34 95.6965,9.8 95.7565,9.16 C95.8165,8.52 95.8798333,7.72666667 95.9465,6.78 L94.8865,6.78 C94.7798333,6.78 94.7165,6.75666667 94.6965,6.71 C94.6765,6.66333333 94.6665,6.59333333 94.6665,6.5 L94.7265,5.48 C94.7398333,5.30666667 94.7631667,5.13666667 94.7965,4.97 C94.8298333,4.80333333 94.8965,4.65333333 94.9965,4.52 C95.0965,4.38666667 95.2398333,4.28 95.4265,4.2 C95.6131667,4.12 95.8598333,4.08 96.1665,4.08 C96.2598333,3.84 96.3665,3.55333333 96.4865,3.22 C96.6065,2.88666667 96.7265,2.56333333 96.8465,2.25 C96.9665,1.93666667 97.0831667,1.67333333 97.1965,1.46 C97.3098333,1.24666667 97.4131667,1.14 97.5065,1.14 L98.0865,1.14 C98.6465,1.14 99.0331667,1.31333333 99.2465,1.66 C99.4598333,2.00666667 99.5665,2.42 99.5665,2.9 C99.5665,3.16666667 99.5465,3.56 99.5065,4.08 L101.6065,4.08 C101.819833,4.08 101.9265,4.17333333 101.9265,4.36 L101.8465,5.44 C101.819833,5.84 101.709833,6.16333333 101.5165,6.41 C101.323167,6.65666667 100.9265,6.78 100.3265,6.78 L99.2665,6.78 Z M107.4265,15.28 C106.839833,15.28 106.2565,15.2066667 105.6765,15.06 C105.0965,14.9133333 104.5765,14.66 104.1165,14.3 C103.6565,13.94 103.279833,13.46 102.9865,12.86 C102.693167,12.26 102.5465,11.5066667 102.5465,10.6 C102.5465,10.2666667 102.573167,9.86666667 102.6265,9.4 C102.679833,8.93333333 102.783167,8.45333333 102.9365,7.96 C103.089833,7.46666667 103.303167,6.97666667 103.5765,6.49 C103.849833,6.00333333 104.2065,5.56666667 104.6465,5.18 C105.0865,4.79333333 105.619833,4.48 106.2465,4.24 C106.873167,4 107.619833,3.88 108.4865,3.88 C109.179833,3.88 109.7665,3.96 110.2465,4.12 C110.7265,4.28 111.113167,4.49666667 111.4065,4.77 C111.699833,5.04333333 111.913167,5.36 112.0465,5.72 C112.179833,6.08 112.2465,6.46666667 112.2465,6.88 C112.2465,7.49333333 112.123167,8.01333333 111.8765,8.44 C111.629833,8.86666667 111.309833,9.22333333 110.9165,9.51 C110.523167,9.79666667 110.0865,10.02 109.6065,10.18 C109.1265,10.34 108.653167,10.4633333 108.1865,10.55 C107.719833,10.6366667 107.289833,10.69 106.8965,10.71 C106.503167,10.73 106.199833,10.74 105.9865,10.74 C105.9865,10.9933333 106.023167,11.2433333 106.0965,11.49 C106.169833,11.7366667 106.279833,11.9533333 106.4265,12.14 C106.573167,12.3266667 106.7665,12.48 107.0065,12.6 C107.2465,12.72 107.539833,12.78 107.8865,12.78 C108.233167,12.78 108.503167,12.7233333 108.6965,12.61 C108.889833,12.4966667 109.0465,12.37 109.1665,12.23 C109.2865,12.09 109.389833,11.9633333 109.4765,11.85 C109.563167,11.7366667 109.679833,11.68 109.8265,11.68 C109.893167,11.68 110.009833,11.6966667 110.1765,11.73 C110.343167,11.7633333 110.513167,11.8333333 110.6865,11.94 C110.859833,12.0466667 111.013167,12.1933333 111.1465,12.38 C111.279833,12.5666667 111.3465,12.8066667 111.3465,13.1 C111.3465,13.4866667 111.2265,13.82 110.9865,14.1 C110.7465,14.38 110.4365,14.6066667 110.0565,14.78 C109.6765,14.9533333 109.253167,15.08 108.7865,15.16 C108.319833,15.24 107.8665,15.28 107.4265,15.28 Z M107.8065,6.54 C107.513167,6.54 107.263167,6.62333333 107.0565,6.79 C106.849833,6.95666667 106.6765,7.16666667 106.5365,7.42 C106.3965,7.67333333 106.289833,7.95333333 106.2165,8.26 C106.143167,8.56666667 106.0865,8.86 106.0465,9.14 C106.873167,9.12666667 107.543167,8.98666667 108.0565,8.72 C108.569833,8.45333333 108.8265,8.07333333 108.8265,7.58 C108.8265,7.31333333 108.743167,7.07333333 108.5765,6.86 C108.409833,6.64666667 108.153167,6.54 107.8065,6.54 Z" id="path-1"></path>
    </defs>
    <g id="Page-1" stroke="none" stroke-width="1" fill="none" fill-rule="evenodd">
        <g id="original-2" transform="translate(0.100000, 0.986994)">
            <g id="Group" fill-rule="nonzero">
                <path d="M127.8745,51.817006 L127.722367,51.9289052 C126.835601,52.5486723 125.854436,53.0615187 124.78627,53.467954 L124.323179,53.6356271 C122.769311,54.1702914 121.046746,54.428006 119.1495,54.428006 C116.999398,54.428006 115.107962,54.0936467 113.454978,53.3852247 C112.59684,53.0174516 111.80615,52.567114 111.090684,52.0370735 L110.7055,51.737006 L110.412699,51.9671541 C110.039411,52.2475245 109.633362,52.5090578 109.190423,52.7572165 L108.851237,52.9409132 C108.106679,53.3309198 107.287739,53.658604 106.388052,53.9317231 C105.29028,54.2649755 104.123446,54.428006 102.8955,54.428006 C101.600862,54.428006 100.291181,54.2379196 98.9750433,53.8642014 C97.3778109,53.4106663 95.9187483,52.6184289 94.6433147,51.516918 C93.3403981,50.3916718 92.3083189,48.9489516 91.5454912,47.2281543 L91.4498329,47.0060618 C91.1688206,49.8528358 89.6323059,51.6201214 87.1665343,52.782862 L86.906236,52.9018583 L59.080893,64.5093715 C57.1988913,65.2850933 56.0599639,65.7476105 55.7900484,65.8438195 L55.4441666,65.9588157 C53.5825773,66.5346537 51.4688314,66.5160226 49.9679493,66.1490351 L48.084587,65.6692604 C47.2021261,65.4397484 46.1056974,65.1507202 44.8102944,64.806319 L20.9587756,58.3580136 L5.71122359,54.190967 C2.2281705,53.2047731 0,50.9328248 0,47.013006 L0,21.013006 C0,17.5365853 2.00086599,14.6659514 4.96602275,13.469161 L6.95651034,12.6603906 C7.85664294,12.2923052 8.78264007,11.9105987 9.75544541,11.5068237 L13.3846554,9.99008376 L22.1031076,6.31022098 L22.7385899,6.03421222 L23.5532253,5.66327461 C23.6282351,5.62835893 23.7056745,5.5921424 23.78603,5.55440019 L27.3878408,3.82370498 C29.3119237,2.90012144 30.6095595,2.31152993 31.9547924,1.77387782 L32.4970218,1.56086043 C33.0893001,1.33209685 33.6673609,1.12409402 34.2367641,0.936082014 L34.5350013,0.831686935 C35.3176914,0.573921449 36.1068549,0.394897323 36.90102,0.278925414 L37.3781075,0.216783021 C38.104905,0.13335989 38.6237821,0.112830711 39.337531,0.109646763 L84.12,0.0140060415 L84.3619367,0.00267835821 C89.0706434,-0.123869827 91.776652,4.25759762 91.5123911,8.13282907 L91.5,8.27500604 L91.4985019,9.89701027 C91.7417843,9.11284183 92.1277507,8.38417805 92.6413954,7.74212223 C93.2490619,6.98253901 94.0170935,6.37706113 94.8965253,5.95493384 C95.8013723,5.5206073 96.7786714,5.31300604 97.8,5.31300604 L106.74,5.31300604 C107.778511,5.31300604 108.794537,5.59291978 109.686827,6.12829293 C110.765501,6.77549714 111.540041,7.71789906 111.968869,8.82768927 L111.9905,8.88700604 L112.107882,8.84335684 C112.549132,8.68963735 113.014424,8.5888938 113.498679,8.54143771 L113.791467,8.51936103 L114.06,8.51300604 L114.78,8.51300604 C115.752314,8.51300604 116.632049,8.63699846 117.466007,8.91498458 C118.530763,9.26990312 119.472577,9.84873119 120.236538,10.645908 L120.4325,10.860006 L120.602663,10.7048947 C120.782923,10.5468865 120.969986,10.3961678 121.163628,10.2530243 L121.458998,10.0440259 C122.436001,9.38267023 123.527564,8.91230287 124.703646,8.63979597 C125.641396,8.42251245 126.589325,8.31300604 127.54,8.31300604 C127.677744,8.31300604 127.814145,8.31502147 127.94922,8.31908553 L128.3385,8.33700604 L128.459779,8.1056031 C128.841846,7.4066094 129.348908,6.77537598 129.968859,6.23767247 L130.206608,6.04046821 C131.568186,4.96059639 133.234745,4.43300604 135.06,4.43300604 C136.918224,4.43300604 138.541417,4.96422308 139.849922,6.13852194 C140.500128,6.7220404 141.012486,7.4143159 141.374036,8.18825832 L141.4485,8.35900604 L141.636289,8.34285551 C144.755984,7.46319228 148.755944,8.30678984 149.192428,8.61529002 C152.102875,8.04977209 155.043566,8.0153441 158.0145,8.51200604 C158.41496,7.64607312 158.996266,6.87059892 159.738974,6.22891544 L159.966608,6.04046821 C161.328186,4.96059639 162.994745,4.43300604 164.82,4.43300604 C166.678224,4.43300604 168.301417,4.96422308 169.609922,6.13852194 C170.343288,6.79667166 170.90028,7.59213781 171.2635,8.47400604 L171.597362,8.42462295 C174.201194,7.96962247 176.291716,8.26500029 177.86893,9.3107564 C180.997851,7.9517141 184.554106,7.74918565 188.537694,8.70317107 L188.2705,8.63100604 L188.376877,8.44203078 C188.578693,8.09708576 188.802862,7.78182422 189.063392,7.48480953 L189.265827,7.26529111 C190.303978,6.19365169 191.657363,5.57300604 193.22,5.57300604 L193.8,5.57300604 C196.160711,5.57300604 198.248977,6.62496958 199.473789,8.61529002 L199.605075,8.83746314 L199.7095,9.03100604 L199.8645,9.10300604 L200.06447,9.02356492 C201.194592,8.5907528 202.424204,8.3614498 203.753288,8.31991733 L204.2,8.31300604 C205.450863,8.31300604 206.588881,8.47594237 207.636007,8.82498456 C208.823944,9.22096363 209.86635,9.81778668 210.733148,10.6254859 C211.628869,11.4601361 212.30814,12.4730309 212.73007,13.612244 C213.083526,14.5665769 213.26,15.5759799 213.26,16.613006 C213.26,18.1413598 212.9053,19.5683242 212.178393,20.8256743 L212.0985,20.958006 L212.166876,21.2121304 C212.241511,21.5216933 212.294758,21.8415532 212.326911,22.1724891 L212.352045,22.5071459 L212.36,22.833006 C212.36,24.4790163 211.791665,26.0366611 210.72406,27.2822003 C210.424554,27.631624 210.095589,27.9516624 209.739989,28.2412368 L209.6285,28.327006 L209.838847,28.5007771 L210.0874,28.7215717 C212.267207,30.7269943 213.374,33.5027486 213.374,36.717006 C213.374,37.041697 213.354784,37.43034 213.314598,37.9477967 L213.230774,38.9106422 C213.199908,39.2389573 213.166212,39.5758824 213.12949,39.9233132 L213.0115,41.018006 L213.216973,41.2282741 C214.026459,42.104559 214.54651,43.2390177 214.671063,44.515357 L214.690732,44.7736382 L214.697,45.033006 C214.697,45.9509172 214.575386,46.8721194 214.336372,47.7883421 C214.048591,48.8915003 213.57058,49.9195178 212.914206,50.8433038 C212.128439,51.9491981 211.083544,52.8344821 209.838569,53.4702139 C208.571073,54.117446 207.152587,54.428006 205.617,54.428006 C204.319324,54.428006 203.112926,54.2102414 202.012585,53.7485337 L201.6725,53.595006 L201.639192,53.6106621 C200.535266,54.0649717 199.324818,54.3264212 198.009033,54.4042327 L197.611139,54.4220762 L197.2065,54.428006 C196.124069,54.428006 195.076761,54.2968441 194.073177,54.0317465 C192.787538,53.6921438 191.619439,53.1037342 190.615872,52.2802949 C189.948462,51.7326764 189.372247,51.0908772 188.893603,50.3687277 L188.6945,50.056006 L188.654454,50.1792238 C188.264787,51.2836085 187.548082,52.2575652 186.553062,52.9682934 C185.512438,53.7115966 184.280381,54.113006 183,54.113006 L181.866,54.113006 C180.656795,54.113006 179.585439,53.9650095 178.599243,53.6362775 C177.60676,53.30545 176.7164,52.8110428 175.957964,52.1543926 L175.8485,52.055006 L175.50311,52.3096203 C175.169001,52.5447161 174.823239,52.7619083 174.466245,52.9606922 L174.105522,53.1533213 C172.688126,53.8785006 171.160254,54.2970184 169.565027,54.4017954 L169.2895,54.415006 L169.259187,54.7310379 C169.107901,56.0241752 168.66492,57.10445 167.789847,58.0594213 L167.595666,58.262172 C166.387375,59.4704631 165.019717,59.940506 163.3125,59.940506 L162.1785,59.940506 C160.969295,59.940506 159.897939,59.7925095 158.911743,59.4637775 C157.698709,59.0594328 156.638227,58.4107283 155.784713,57.5201045 C154.907438,56.6046879 154.293687,55.4859759 153.974237,54.2436736 L153.9425,54.112006 L153.396001,54.106962 C152.539015,54.0826711 151.758709,53.9844748 151.030143,53.799981 L150.670056,53.7004854 C150.104418,53.530794 149.572603,53.3111951 149.078451,53.0398393 L148.8405,52.901006 L148.713048,52.9998823 C148.119503,53.4312178 147.448897,53.7394294 146.731201,53.9177958 L146.459916,53.9785836 C145.983362,54.0738944 145.514318,54.113006 144.9795,54.113006 L143.9715,54.113006 C142.793848,54.113006 141.759906,53.9852904 140.810556,53.7004854 C140.244918,53.530794 139.713103,53.3111951 139.218951,53.0398393 L139.0125,52.920006 L138.905103,53.0068582 C137.933812,53.7379823 136.850732,54.0650748 135.575285,54.1080721 L135.2775,54.113006 L134.1435,54.113006 C132.934295,54.113006 131.862939,53.9650095 130.876743,53.6362775 C129.773984,53.2686914 128.797303,52.699155 127.98758,51.929502 L127.8745,51.817006 Z" id="Path" fill="#FFFFFF"></path>
                <path d="M84.3,4.91296024 C85.4,4.91296024 85.7632429,5.23196947 86.2609147,6.08573291 C86.5234511,6.69188707 86.6,7.10885194 86.6,8.01300604 L86.6,46.013006 C86.6,49.413006 81.7,49.313006 81.7,46.013006 L81.7,10.513006 C72.7,14.313006 63.8,18.013006 54.9,21.813006 L54.9,59.013006 C54.9,62.413006 50,62.313006 50,59.013006 L50,22.313006 L38.1,22.313006 L38.1,55.013006 C38.1,55.913006 37.3,56.513006 36.5,56.313006 C32.5,55.513006 28.4,54.613006 24.3,53.813006 C23.8,53.613006 23.4,53.013006 23.4,52.513006 L23.4,22.313006 L9.8,22.313006 L9.8,47.013006 C9.8,50.413006 4.9,50.313006 4.9,47.013006 L4.9,21.013006 C4.9,20.113006 5.2,19.513006 5.7,19.113006 C5.9,18.613006 6.3,18.213006 6.8,18.013006 C12.5,15.713006 18.1,13.313006 23.8,10.913006 C28.3,9.01300604 33.6466093,6.42452798 37.8,5.01300604 C40.1254544,5.00616681 52.6373545,4.9704444 64.6532164,4.94362117 L65.8331282,4.94101285 C71.9171838,4.92769857 77.7826749,4.91700255 82.0275377,4.9138837 Z M79.4,31.513006 C79.3,33.513006 78.9,35.513006 78.5,37.413006 C77.2,43.213006 73.5,50.613006 66.7,49.713006 C62.3,49.213006 59.3,44.613006 58,40.413006 C57.6,38.813006 59.9,38.113006 60.4,39.713006 C60.4,39.813006 60.5,40.013006 60.5,40.113006 C60.6,40.213006 60.6,40.413006 60.7,40.513006 C60.7,40.513006 60.7,40.313006 60.8,40.613006 C60.8,40.713006 60.9,40.713006 60.9,40.813006 C61.4,41.813006 61.9,42.913006 62.6,43.813006 C63.9,45.713006 65.7,47.213006 68,47.113006 C70.7,47.013006 72.8,45.013006 74.1,42.613006 C76,39.313006 76.9,35.013006 77.1,31.413006 C77.2,29.713006 79.7,29.713006 79.4,31.513006 Z M65.1,29.213006 C66.4807119,29.213006 67.6,31.5411253 67.6,34.413006 C67.6,37.2848867 66.4807119,39.613006 65.1,39.613006 C63.7192881,39.613006 62.6,37.2848867 62.6,34.413006 C62.6,31.5411253 63.7192881,29.213006 65.1,29.213006 Z M72,26.213006 C73.3807119,26.213006 74.5,28.5411253 74.5,31.413006 C74.5,34.2848867 73.3807119,36.613006 72,36.613006 C70.6192881,36.613006 69.5,34.2848867 69.5,31.413006 C69.5,28.5411253 70.6192881,26.213006 72,26.213006 Z M73.7,9.21300604 L65.2,9.21300604 C64.969863,9.38560878 60.4033777,11.3457139 55.5571134,13.4935475 L54.8633247,13.8014852 C54.6317194,13.9044416 54.3999177,14.007651 54.1683577,14.1109406 L53.4748404,14.4208772 C50.5918559,15.7118426 47.8150685,16.9883485 46,17.913006 L53.1,17.913006 C59.9,15.013006 66.8,12.113006 73.7,9.21300604 Z M46.7294048,9.21300604 L38.8,9.21300604 C38.8,9.21300604 38.7,9.31300604 38.4,9.41300604 C31.5,12.013006 24.7,14.913006 17.9,17.913006 L26.5,17.913006 C27.2940299,17.5727075 32.086291,15.559698 36.9982699,13.4612284 L37.774275,13.1294123 L38.548877,12.7975643 C41.7687503,11.4167262 44.8637331,10.071215 46.7294048,9.21300604 Z" id="Combined-Shape" fill="#ED661B"></path>
            </g>
            <g id="compra" transform="translate(95.713500, 9.733006)">
                <mask id="mask-2" fill="white">
                    <use xlink:href="#path-1"></use>
                </mask>
                <use id="Combined-Shape" fill="#272B38" fill-rule="nonzero" xlink:href="#path-1"></use>
            </g>
        </g>
    </g>
</svg>